<?xml version="1.0" standalone="yes"?>
<svg xmlns="http://www.w3.org/2000/svg" width="736" height="84">
<path style="fill:#651516; stroke:none;" d="M0 0L0 84L324 84L324 80L503 80L503 84L736 84L736 1L0 0z"/>
<path style="fill:#782829; stroke:none;" d="M706 0C714.128 3.4105 727.186 1 736 1C727.872 -2.41054 714.814 0 706 0z"/>
<path style="fill:#560d0e; stroke:none;" d="M63 8C67.7238 9.98221 73.9098 9 79 9C74.2762 7.0178 68.0902 8 63 8z"/>
<path style="fill:#855052; stroke:none;" d="M22 9C26.7238 10.9822 32.9098 10 38 10C33.2762 8.0178 27.0902 9 22 9z"/>
<path style="fill:#884f52; stroke:none;" d="M63 9C69.6867 11.8058 79.7674 10 87 10C80.3133 7.19415 70.2326 9 63 9z"/>
<path style="fill:#845152; stroke:none;" d="M112 9C120.128 12.4105 133.186 10 142 10C133.872 6.58946 120.814 9 112 9z"/>
<path style="fill:#7c4346; stroke:none;" d="M157 9C158.769 9.77895 160.036 9.91241 162 10C160.231 9.22107 158.964 9.08759 157 9z"/>
<path style="fill:#8b4e50; stroke:none;" d="M165.667 9.33334C165.222 9.77773 166.278 9.72224 166.333 9.66666C166.778 9.22219 165.722 9.27779 165.667 9.33334z"/>
<path style="fill:#865052; stroke:none;" d="M181 9C185.217 10.7693 190.459 10 195 10C190.783 8.23067 185.541 9 181 9z"/>
<path style="fill:#430508; stroke:none;" d="M20 10L20 14C20.7102 12.2405 20.7102 11.7595 20 10z"/>
<path style="fill:#a98987; stroke:none;" d="M22 10C23.2484 10.6848 23.5484 10.7488 25 11C23.7517 10.3152 23.4516 10.2512 22 10z"/>
<path style="fill:#bfc1c0; stroke:none;" d="M25 10C25.5977 11.1954 25.4661 10.9774 27 12C16.7597 15.3176 19.1365 32.1817 17.4961 41C16.4799 46.4628 13.6639 52.5676 12 58C18.895 58 25.5242 59.5882 26 51C35.1853 51.0071 39.9949 56.993 49 57C46.751 41.5403 43.0984 26.5831 41 11C35.6178 10.5752 30.4212 10 25 10z"/>
<path style="fill:#bca4a0; stroke:none;" d="M36.6667 10.3333C36.2222 10.7778 37.2778 10.7222 37.3333 10.6667C37.7778 10.2222 36.7222 10.2778 36.6667 10.3333z"/>
<path style="fill:#a17f7e; stroke:none;" d="M38 10C39.2484 10.6848 39.5484 10.7488 41 11C39.7517 10.3152 39.4516 10.2512 38 10z"/>
<path style="fill:#4f0508; stroke:none;" d="M61 10C59.579 12.6787 58.583 15.0239 58 18C61.5888 21.8014 61 26.0074 61 31L61 54C62.7687 49.7849 62 44.5355 62 40C62 32.0974 61.769 24.5102 60.9684 16.7153C60.7233 14.3291 61.583 12.3158 61 10z"/>
<path style="fill:#bda6a9; stroke:none;" d="M63 10C64.769 10.7789 66.0359 10.9124 68 11C66.231 10.2211 64.9641 10.0876 63 10z"/>
<path style="fill:#ccc5c3; stroke:none;" d="M61 17C67.7831 10.3746 73.8583 12.4213 82.6998 12.7461C86.8594 12.899 91.4151 12.0601 93.9722 16.3086C97.403 22.0087 95 34.459 95 41C98.6995 36.1168 97.7974 23.998 96.8519 18.0039C96.5129 15.855 95.6446 14.0543 93.8519 12.7423C90.3467 10.1772 85.0843 11.1119 81 10.5756C73.9327 9.64767 62.8383 8.18349 61 17z"/>
<path style="fill:#bba8a7; stroke:none;" d="M80 10C81.506 10.683 82.3148 10.8259 84 11C82.4939 10.317 81.6852 10.1741 80 10z"/>
<path style="fill:#a58888; stroke:none;" d="M84 10C85.2484 10.6848 85.5484 10.7488 87 11C85.7517 10.3152 85.4516 10.2512 84 10z"/>
<path style="fill:#804748; stroke:none;" d="M87 10C88.769 10.7789 90.0359 10.9124 92 11C90.231 10.2211 88.964 10.0876 87 10z"/>
<path style="fill:#bbaaa5; stroke:none;" d="M112 10C114.052 10.8742 115.747 10.9528 118 11C115.948 10.1257 114.253 10.0472 112 10z"/>
<path style="fill:#c2c2c0; stroke:none;" d="M112 58L142 58L141 53C137.014 53.4708 131.883 54.3687 128.279 51.9869C124.739 49.6477 123.419 41.6299 127.318 39.0278C129.879 37.3181 134.076 38.0003 137 38L137 31L125 31C125 27.2865 123.715 20.4322 127.318 18.0278C130.378 15.9861 142.076 19.223 142.248 14C142.346 11.0432 138.072 10.7422 135.999 10.429C131.002 9.67374 116.638 7.83778 113.194 12.5887C111.106 15.4682 112.983 21.6249 112.999 25C113.036 32.6133 113.836 40.4093 113.701 47.9606C113.641 51.3638 112.103 54.5164 112 58z"/>
<path style="fill:#bfa3a7; stroke:none;" d="M136 10C138.052 10.8743 139.747 10.9528 142 11C139.948 10.1257 138.253 10.0472 136 10z"/>
<path style="fill:#c4c1c2; stroke:none;" d="M155 58C158.82 58 165.31 59.2301 168.336 56.3966C171.086 53.8226 171.263 48.494 172 45C173.684 45.2239 174.313 45.2183 176 45C176.918 48.8661 178.415 55.5264 182.39 57.3966C185.576 58.8951 190.552 58 194 58C192.383 50.2668 185.365 41.7016 185.542 34C185.734 25.6137 193.244 18.6049 194 10C190.552 10 185.576 9.10493 182.39 10.6034C178.325 12.5157 176.321 20.0616 175 24C172.791 20.2154 170.881 13.2569 166.787 11.1829C163.191 9.36112 155.749 9.60796 155.697 14.9298C155.622 22.544 165.636 27.4386 164.747 36C163.93 43.8644 156.709 50.0619 155 58z"/>
<path style="fill:#a18a84; stroke:none;" d="M161 10C162.506 10.683 163.315 10.8259 165 11C163.494 10.317 162.685 10.1741 161 10z"/>
<path style="fill:#a87d7c; stroke:none;" d="M167 10L168 11L167 10z"/>
<path style="fill:#a97272; stroke:none;" d="M194 10L194 13C194.696 11.4463 194.696 11.5537 194 10z"/>
<path style="fill:#724645; stroke:none;" d="M21 11L21 14C21.6961 12.4463 21.6961 12.5537 21 11z"/>
<path style="fill:#d8c3c2; stroke:none;" d="M22 11L22 13C23.8782 12.8241 25.1994 12.5618 27 12C25.231 11.2211 23.9641 11.0876 22 11z"/>
<path style="fill:#410004; stroke:none;" d="M42.3333 11.6667C42.2778 11.7222 42.2222 12.7778 42.6667 12.3333C42.7222 12.2778 42.7778 11.2222 42.3333 11.6667z"/>
<path style="fill:#a48181; stroke:none;" d="M62 11L63 12L62 11z"/>
<path style="fill:#996868; stroke:none;" d="M92 11L93 12L92 11z"/>
<path style="fill:#b28788; stroke:none;" d="M111 11L112 12L111 11z"/>
<path style="fill:#d7c8c9; stroke:none;" d="M112 11C109.654 15.6487 111.802 19.0633 111.981 24C112.322 33.3533 112.6 42.6728 113 52C114.628 48.0836 113.22 44.1219 113.039 40C112.629 30.6377 114.447 20.0797 112 11z"/>
<path style="fill:#986f6b; stroke:none;" d="M142 11L143 12L142 11z"/>
<path style="fill:#794c4f; stroke:none;" d="M156 11L157 12L156 11z"/>
<path style="fill:#9b6568; stroke:none;" d="M168 11L169 12L168 11z"/>
<path style="fill:#9f7378; stroke:none;" d="M180 11L181 12L180 11z"/>
<path style="fill:#ad918e; stroke:none;" d="M41 12L41 15C41.6961 13.4463 41.6961 13.5537 41 12z"/>
<path style="fill:#c0c1c1; stroke:none;" d="M61 17C65.5861 24.4877 63.7533 33.5766 64.0355 42C64.2183 47.4575 65.2422 52.6099 64 58L76 58C74.784 52.8923 74.6452 48.0771 76 43C80.0979 43.4374 90.0263 44.6415 93.3966 41.9722C95.3605 40.4167 94.984 37.2091 94.9992 35C95.035 29.8152 97.0508 18.8426 93.3974 14.7269C90.6656 11.6494 86.6039 12.4196 82.9606 12.3951C74.7359 12.3398 66.4809 9.63383 61 17z"/>
<path style="fill:#876162; stroke:none;" d="M94 12L95 13L94 12z"/>
<path style="fill:#4e0f13; stroke:none;" d="M109 12C107.635 16.7528 109.249 20.268 109.816 25C110.558 31.2078 110 37.7522 110 44C111.441 40.5654 111 36.7024 111 33C111 26.0726 111.602 18.5405 109 12z"/>
<path style="fill:#824f52; stroke:none;" d="M110 12L111 13L110 12z"/>
<path style="fill:#ab7a81; stroke:none;" d="M61 13L62 14L61 13z"/>
<path style="fill:#a38384; stroke:none;" d="M95 13L96 14L95 13z"/>
<path style="fill:#641616; stroke:none;" d="M154 13C153.001 14.4934 153.032 14.2664 153 16L149 16C149.055 17.5297 148.875 19.0565 146.833 19.3333C145.196 19.5553 143.627 18.2259 142 18C136.89 17.2902 131.168 18 126 18L126 30L138 30L137 40L127 40C126.997 43.7857 126.879 47.306 126 51C134.55 49.4127 142.873 48.2392 143 59L121 59C118.383 58.9946 114.63 59.4885 112.618 57.3966C110.546 55.2429 111.68 51.6016 112 49C108.35 53.8181 109.688 59.5082 116 60C114.419 63.0849 115.668 64.601 118 67C118.986 65.5215 119 65.7968 119 64C125.236 66.3137 121.553 71 124.939 75.3866C127.477 78.6748 132.263 79.0686 136 80L137 76C135.455 76.3979 133.666 77.1115 132.034 76.8032C123.059 75.1074 130.835 56.4945 137 67C138.3 66.3501 138 66.8532 138 65C138.562 66.8006 138.824 68.1218 139 70L142 70L142 64C146.793 63.9381 150.319 62.468 152 68L148 67C149.453 68.8429 150.735 69.2585 153 70C154.605 64.5396 156.066 62.1943 162 62L163 66L180 66C177.499 64.688 175.776 64.5452 173 65L172 62C170.203 62 170.479 62.0143 169 63L168 59C163.239 59 158.655 59.1083 154 58C156.927 50.5724 163.222 42.2505 162.856 34C162.508 26.168 157.126 19.7995 154 13z"/>
<path style="fill:#80494f; stroke:none;" d="M155 13L156 14L155 13z"/>
<path style="fill:#9a7775; stroke:none;" d="M169 13L170 14L169 13z"/>
<path style="fill:#a67177; stroke:none;" d="M179 13L180 14L179 13z"/>
<path style="fill:#83474e; stroke:none;" d="M42.3333 14.6667C42.2778 14.7222 42.2222 15.7778 42.6667 15.3333C42.7222 15.2778 42.7778 14.2222 42.3333 14.6667z"/>
<path style="fill:#3b0000; stroke:none;" d="M43 14L43 18C43.7102 16.2405 43.7102 15.7595 43 14z"/>
<path style="fill:#734243; stroke:none;" d="M60 14L60 18C60.7102 16.2405 60.7102 15.7595 60 14z"/>
<path style="fill:#8c5d5f; stroke:none;" d="M96 14L97 15L96 14z"/>
<path style="fill:#8f5960; stroke:none;" d="M193.333 14.6667C193.278 14.7223 193.222 15.7778 193.667 15.3333C193.722 15.2778 193.778 14.2222 193.333 14.6667z"/>
<path style="fill:#4b0000; stroke:none;" d="M19 15L19 19C19.7102 17.2405 19.7102 16.7595 19 15z"/>
<path style="fill:#693134; stroke:none;" d="M20 15L20 18C20.6961 16.4463 20.6961 16.5537 20 15z"/>
<path style="fill:#874d4c; stroke:none;" d="M109.333 15.6667C109.278 15.7222 109.222 16.7778 109.667 16.3333C109.722 16.2778 109.778 15.2222 109.333 15.6667z"/>
<path style="fill:#a17775; stroke:none;" d="M142.333 15.6667C142.278 15.7222 142.222 16.7778 142.667 16.3333C142.722 16.2778 142.778 15.2222 142.333 15.6667z"/>
<path style="fill:#834746; stroke:none;" d="M154.333 15.6667C154.278 15.7223 154.222 16.7778 154.667 16.3333C154.722 16.2778 154.778 15.2222 154.333 15.6667z"/>
<path style="fill:#937673; stroke:none;" d="M170 15L171 16L170 15z"/>
<path style="fill:#85635c; stroke:none;" d="M178 15L179 16L178 15z"/>
<path style="fill:#956e6f; stroke:none;" d="M42 16L42 19C42.6961 17.4463 42.6961 17.5537 42 16z"/>
<path style="fill:#beaca5; stroke:none;" d="M78 16C79.506 16.683 80.3148 16.8259 82 17C80.494 16.317 79.6852 16.1741 78 16z"/>
<path style="fill:#5e3634; stroke:none;" d="M97 16L97 40C99.3486 34.4031 99.3486 21.5969 97 16z"/>
<path style="fill:#4b0607; stroke:none;" d="M98 16L98 39C100.284 33.5574 100.284 21.4426 98 16z"/>
<path style="fill:#7c534c; stroke:none;" d="M77 17C79.0521 17.8742 80.7472 17.9528 83 18C80.9479 17.1258 79.2528 17.0472 77 17z"/>
<path style="fill:#9d7573; stroke:none;" d="M110 17L111 18L110 17z"/>
<path style="fill:#937170; stroke:none;" d="M126 17C129.432 18.4403 133.3 18 137 18C133.568 16.5597 129.7 17 126 17z"/>
<path style="fill:#875855; stroke:none;" d="M137 17C139.052 17.8742 140.747 17.9528 143 18C140.948 17.1257 139.253 17.0472 137 17z"/>
<path style="fill:#a87775; stroke:none;" d="M155 17L156 18L155 17z"/>
<path style="fill:#8e6569; stroke:none;" d="M171 17L172 18L171 17z"/>
<path style="fill:#815759; stroke:none;" d="M177 17L178 18L177 17z"/>
<path style="fill:#9c6764; stroke:none;" d="M192 17L193 18L192 17z"/>
<path style="fill:#b48c8d; stroke:none;" d="M20.3333 18.6667C20.2778 18.7222 20.2222 19.7778 20.6667 19.3333C20.7222 19.2778 20.7778 18.2222 20.3333 18.6667z"/>
<path style="fill:#764d51; stroke:none;" d="M62 18L62 52C64.8019 45.3226 63.0005 35.2153 63 28C62.9998 24.5814 63.3283 21.1656 62 18z"/>
<path style="fill:#a67d7b; stroke:none;" d="M76 18L76 31C77.5909 27.2087 77.5909 21.7913 76 18z"/>
<path style="fill:#611713; stroke:none;" d="M77 18L77 37L83 37C81.5221 30.7924 82 24.3463 82 18L77 18z"/>
<path style="fill:#3e0000; stroke:none;" d="M82 18L82 36C83.9516 31.349 83.9516 22.651 82 18z"/>
<path style="fill:#bc868c; stroke:none;" d="M83 18L83 37C85.0196 32.1871 85.0196 22.8129 83 18z"/>
<path style="fill:#bba3a3; stroke:none;" d="M111 18L111 21C111.696 19.4463 111.696 19.5537 111 18z"/>
<path style="fill:#a37e86; stroke:none;" d="M125.333 18.6667C125.278 18.7222 125.222 19.7778 125.667 19.3333C125.722 19.2778 125.778 18.2222 125.333 18.6667z"/>
<path style="fill:#714748; stroke:none;" d="M156 18L157 19L156 18z"/>
<path style="fill:#a28b8b; stroke:none;" d="M157 18L158 19L157 18z"/>
<path style="fill:#68413c; stroke:none;" d="M43 19L43 22C43.6961 20.4463 43.6961 20.5537 43 19z"/>
<path style="fill:#dad0d0; stroke:none;" d="M75 19L75 36C76.8826 31.5135 76.8826 23.4865 75 19z"/>
<path style="fill:#d8c8c9; stroke:none;" d="M84 19L84 38C85.8998 33.4727 86.4338 23.2614 84 19z"/>
<path style="fill:#855453; stroke:none;" d="M172 19L173 20L172 19z"/>
<path style="fill:#946b6c; stroke:none;" d="M191 19L192 20L191 19z"/>
<path style="fill:#928987; stroke:none;" d="M31 20L32 21L31 20z"/>
<path style="fill:#580a0c; stroke:none;" d="M44 20L45 31L47 31C46.825 26.9866 46.358 23.3096 44 20z"/>
<path style="fill:#765454; stroke:none;" d="M125 20L125 28C126.161 25.2301 126.161 22.7699 125 20z"/>
<path style="fill:#a48e89; stroke:none;" d="M158 20L159 21L158 20z"/>
<path style="fill:#ab8387; stroke:none;" d="M176 20L177 21L176 20z"/>
<path style="fill:#390e0c; stroke:none;" d="M31 21L31 27C31.9511 24.7147 31.9511 23.2853 31 21z"/>
<path style="fill:#d0c4c3; stroke:none;" d="M33 21L35 38C36.9984 33.1926 35.3987 25.5106 33 21z"/>
<path style="fill:#d3c0c2; stroke:none;" d="M63 21C63 33.0197 62.4925 45.0719 64 57C65.9493 52.3257 64.411 46.9126 64.0887 41.9992C63.6557 35.3967 65.5787 27.1453 63 21z"/>
<path style="fill:#a87d7f; stroke:none;" d="M111 21L111 46C113.413 40.2497 113.413 26.7503 111 21z"/>
<path style="fill:#785350; stroke:none;" d="M158 21L159 22L158 21z"/>
<path style="fill:#714948; stroke:none;" d="M173 21L174 22L173 21z"/>
<path style="fill:#310c11; stroke:none;" d="M174.333 21.6667C174.278 21.7222 174.222 22.7778 174.667 22.3333C174.722 22.2777 174.778 21.2222 174.333 21.6667z"/>
<path style="fill:#956363; stroke:none;" d="M190 21L191 22L190 21z"/>
<path style="fill:#e6d9d3; stroke:none;" d="M29 22L29 27C29.8299 24.9695 29.8299 24.0305 29 22z"/>
<path style="fill:#a48786; stroke:none;" d="M30.3333 22.6667C30.2778 22.7222 30.2222 23.7778 30.6667 23.3333C30.7222 23.2778 30.7778 22.2222 30.3333 22.6667z"/>
<path style="fill:#997a7a; stroke:none;" d="M32.3333 22.6667C32.2778 22.7222 32.2222 23.7778 32.6667 23.3333C32.7222 23.2778 32.7778 22.2222 32.3333 22.6667z"/>
<path style="fill:#a08984; stroke:none;" d="M43.3333 22.6667C43.2778 22.7222 43.2222 23.7778 43.6667 23.3333C43.7222 23.2778 43.7778 22.2222 43.3333 22.6667z"/>
<path style="fill:#b08f89; stroke:none;" d="M159 22L160 23L159 22z"/>
<path style="fill:#b18f8d; stroke:none;" d="M19 23L19 26C19.6961 24.4463 19.6961 24.5537 19 23z"/>
<path style="fill:#826f70; stroke:none;" d="M174 23L175 24L174 23z"/>
<path style="fill:#8c6667; stroke:none;" d="M189 23L190 24L189 23z"/>
<path style="fill:#530406; stroke:none;" d="M190 23C188.312 26.0108 187.351 28.5621 187 32C188.839 29.2615 190.552 26.2997 190 23z"/>
<path style="fill:#8a605e; stroke:none;" d="M30 24L30 27C30.6961 25.4463 30.6961 25.5537 30 24z"/>
<path style="fill:#572c2e; stroke:none;" d="M32.3333 24.6667C32.2778 24.7222 32.2222 25.7778 32.6667 25.3333C32.7222 25.2778 32.7778 24.2222 32.3333 24.6667z"/>
<path style="fill:#733e3d; stroke:none;" d="M44.3333 24.6667C44.2778 24.7222 44.2222 25.7778 44.6667 25.3333C44.7222 25.2778 44.7778 24.2222 44.3333 24.6667z"/>
<path style="fill:#b39293; stroke:none;" d="M160 24L161 25L160 24z"/>
<path style="fill:#8e5f62; stroke:none;" d="M188 25L189 26L188 25z"/>
<path style="fill:#641711; stroke:none;" d="M32 26C29.966 28.8596 25.828 39.1906 28.071 42.3966C29.4812 44.4123 32.8919 43.975 35 44C34.953 38.326 34.9557 30.9342 32 26z"/>
<path style="fill:#bf9d9a; stroke:none;" d="M44 26L44 31C44.8299 28.9695 44.8299 28.0305 44 26z"/>
<path style="fill:#ba9da0; stroke:none;" d="M161 26L162 27L161 26z"/>
<path style="fill:#d7d4d1; stroke:none;" d="M162 26L163 31C163.651 28.7659 163.318 27.9261 162 26z"/>
<path style="fill:#947276; stroke:none;" d="M18.3333 27.6667C18.2778 27.7222 18.2222 28.7778 18.6667 28.3333C18.7222 28.2778 18.7778 27.2222 18.3333 27.6667z"/>
<path style="fill:#88595b; stroke:none;" d="M33.3333 27.6667C33.2778 27.7222 33.2222 28.7778 33.6667 28.3333C33.7222 28.2778 33.7778 27.2222 33.3333 27.6667z"/>
<path style="fill:#703d40; stroke:none;" d="M161.333 27.6667C161.278 27.7222 161.222 28.7778 161.667 28.3333C161.722 28.2778 161.778 27.2222 161.333 27.6667z"/>
<path style="fill:#947370; stroke:none;" d="M187 27L188 28L187 27z"/>
<path style="fill:#a78983; stroke:none;" d="M29.3333 28.6667C29.2778 28.7222 29.2222 29.7778 29.6667 29.3333C29.7222 29.2778 29.7778 28.2222 29.3333 28.6667z"/>
<path style="fill:#9b7e83; stroke:none;" d="M125 28L125 31C125.696 29.4463 125.696 29.5537 125 28z"/>
<path style="fill:#7f3937; stroke:none;" d="M192 28L193 31C193.685 29.7516 193.749 29.4516 194 28L192 28z"/>
<path style="fill:#b4999e; stroke:none;" d="M18 29L18 32C18.6961 30.4463 18.6961 30.5537 18 29z"/>
<path style="fill:#8c5f62; stroke:none;" d="M162.333 29.6667C162.278 29.7222 162.222 30.7778 162.667 30.3333C162.722 30.2777 162.778 29.2222 162.333 29.6667z"/>
<path style="fill:#9b716f; stroke:none;" d="M186 29L186 32C186.696 30.4463 186.696 30.5537 186 29z"/>
<path style="fill:#a06064; stroke:none;" d="M191 29L192 30L191 29z"/>
<path style="fill:#d79c9a; stroke:none;" d="M192 29L191 31L193 31C193 29.1468 193.3 29.6499 192 29z"/>
<path style="fill:#936d6a; stroke:none;" d="M29 30L29 33C29.6961 31.4463 29.6961 31.5537 29 30z"/>
<path style="fill:#7e5f5c; stroke:none;" d="M126 30C129.697 31.5515 134.017 31 138 31C134.303 29.4485 129.983 30 126 30z"/>
<path style="fill:#68353c; stroke:none;" d="M44 31L44 36C45.2086 33.8692 45.2086 33.1308 44 31z"/>
<path style="fill:#3e0002; stroke:none;" d="M45.3333 31.6667C45.2778 31.7222 45.2222 32.7778 45.6667 32.3333C45.7222 32.2778 45.7778 31.2222 45.3333 31.6667z"/>
<path style="fill:#946064; stroke:none;" d="M76 31L76 35C76.7102 33.2405 76.7102 32.7595 76 31z"/>
<path style="fill:#b38f91; stroke:none;" d="M137 31L137 37C137.951 34.7147 137.951 33.2853 137 31z"/>
<path style="fill:#b59190; stroke:none;" d="M163 31L163 34C163.696 32.4463 163.696 32.5537 163 31z"/>
<path style="fill:#d6d0cc; stroke:none;" d="M164 31C163.774 35.9281 161.825 40.2039 161 45C164.258 41.0481 166.054 35.9058 164 31z"/>
<path style="fill:#814041; stroke:none;" d="M191.667 31.3333C191.222 31.7778 192.278 31.7222 192.333 31.6667C192.778 31.2223 191.722 31.2778 191.667 31.3333z"/>
<path style="fill:#9f6b6e; stroke:none;" d="M17 32L17 35C17.6961 33.4463 17.6961 33.5537 17 32z"/>
<path style="fill:#9d7c7b; stroke:none;" d="M34.3333 32.6667C34.2778 32.7222 34.2222 33.7778 34.6667 33.3333C34.7222 33.2778 34.7778 32.2222 34.3333 32.6667z"/>
<path style="fill:#816c71; stroke:none;" d="M73 32L73 34L75 34L75 32L73 32z"/>
<path style="fill:#b2999e; stroke:none;" d="M185 32L185 37C185.83 34.9695 185.83 34.0305 185 32z"/>
<path style="fill:#370000; stroke:none;" d="M186 32L186 37C186.83 34.9695 186.83 34.0305 186 32z"/>
<path style="fill:#954b49; stroke:none;" d="M187.333 32.6667C187.278 32.7222 187.222 33.7778 187.667 33.3333C187.722 33.2777 187.778 32.2222 187.333 32.6667z"/>
<path style="fill:#c28a88; stroke:none;" d="M188 32L189 33L188 32z"/>
<path style="fill:#7d484c; stroke:none;" d="M189.333 32.6667C189.278 32.7222 189.222 33.7778 189.667 33.3333C189.722 33.2777 189.778 32.2222 189.333 32.6667z"/>
<path style="fill:#bfa6ab; stroke:none;" d="M43.3333 33.6667C43.2778 33.7222 43.2222 34.7778 43.6667 34.3333C43.7222 34.2778 43.7778 33.2222 43.3333 33.6667z"/>
<path style="fill:#ad7171; stroke:none;" d="M46 33L45 35L47 35C47 33.1468 47.2997 33.6498 46 33z"/>
<path style="fill:#e7b7b6; stroke:none;" d="M188 33L189 34L188 33z"/>
<path style="fill:#b59995; stroke:none;" d="M28 34L28 37C28.6961 35.4463 28.6961 35.5537 28 34z"/>
<path style="fill:#785856; stroke:none;" d="M34 34L34 37C34.6961 35.4463 34.6961 35.5537 34 34z"/>
<path style="fill:#9a7576; stroke:none;" d="M163 34L163 37C163.696 35.4463 163.696 35.5537 163 34z"/>
<path style="fill:#732926; stroke:none;" d="M187 34L187 37C188.015 35.8606 188.309 35.3884 189 34L187 34z"/>
<path style="fill:#6e504e; stroke:none;" d="M76.3333 35.6667C76.2778 35.7222 76.2222 36.7778 76.6667 36.3333C76.7222 36.2778 76.7778 35.2222 76.3333 35.6667z"/>
<path style="fill:#8f5755; stroke:none;" d="M188.667 35.3333C188.222 35.7778 189.278 35.7222 189.333 35.6667C189.778 35.2223 188.722 35.2778 188.667 35.3333z"/>
<path style="fill:#4d0304; stroke:none;" d="M15 36L15 40C15.7102 38.2405 15.7102 37.7595 15 36z"/>
<path style="fill:#7f5755; stroke:none;" d="M16 36L16 40C16.7102 38.2405 16.7102 37.7595 16 36z"/>
<path style="fill:#a16564; stroke:none;" d="M46.6667 36.3333C46.2222 36.7778 47.2778 36.7222 47.3333 36.6667C47.7778 36.2222 46.7222 36.2778 46.6667 36.3333z"/>
<path style="fill:#d89d9b; stroke:none;" d="M188.667 36.3333C188.222 36.7778 189.278 36.7222 189.333 36.6667C189.778 36.2222 188.722 36.2778 188.667 36.3333z"/>
<path style="fill:#d0c8c8; stroke:none;" d="M17 37C15.8881 42.1662 13.2872 46.6787 13 52C15.5295 47.5905 19.0601 42.0646 17 37z"/>
<path style="fill:#a49791; stroke:none;" d="M45 37L45 39C46.6352 38.4549 46.4549 38.6352 47 37L45 37z"/>
<path style="fill:#ffcbcb; stroke:none;" d="M47 37L48 38L47 37z"/>
<path style="fill:#a2615e; stroke:none;" d="M48.3333 37.6667C48.2778 37.7222 48.2222 38.7778 48.6667 38.3333C48.7222 38.2778 48.7778 37.2222 48.3333 37.6667z"/>
<path style="fill:#9f636a; stroke:none;" d="M76 37C78.3316 37.9845 80.4566 37.9813 83 38C80.6684 37.0155 78.5433 37.0187 76 37z"/>
<path style="fill:#6c3638; stroke:none;" d="M186 37L187 38L186 37z"/>
<path style="fill:#975354; stroke:none;" d="M188.667 37.3333C188.222 37.7778 189.278 37.7222 189.333 37.6667C189.778 37.2223 188.722 37.2778 188.667 37.3333z"/>
<path style="fill:#b18789; stroke:none;" d="M27 38L28 39L27 38z"/>
<path style="fill:#624442; stroke:none;" d="M46.3333 38.6667C46.2778 38.7222 46.2222 39.7778 46.6667 39.3333C46.7222 39.2778 46.7778 38.2222 46.3333 38.6667z"/>
<path style="fill:#c3938e; stroke:none;" d="M47 38L48 39L47 38z"/>
<path style="fill:#976568; stroke:none;" d="M126 38C129.432 39.4403 133.3 39 137 39C133.568 37.5597 129.7 38 126 38z"/>
<path style="fill:#ab8485; stroke:none;" d="M162.333 38.6667C162.278 38.7222 162.222 39.7778 162.667 39.3333C162.722 39.2778 162.778 38.2222 162.333 38.6667z"/>
<path style="fill:#9e7374; stroke:none;" d="M186 38L187 39L186 38z"/>
<path style="fill:#e5cfd7; stroke:none;" d="M36 39L36 44C36.8299 41.9695 36.8299 41.0305 36 39z"/>
<path style="fill:#a08182; stroke:none;" d="M125.333 39.6667C125.278 39.7222 125.222 40.7778 125.667 40.3333C125.722 40.2778 125.778 39.2222 125.333 39.6667z"/>
<path style="fill:#531012; stroke:none;" d="M126 39L126 50C127.327 46.8367 127 43.4144 127 40L137 40C133.568 38.5597 129.7 39 126 39z"/>
<path style="fill:#733e44; stroke:none;" d="M15 40L15 43C15.6961 41.4463 15.6961 41.5537 15 40z"/>
<path style="fill:#a28081; stroke:none;" d="M35 40L35 44L28 44C30.6127 45.0977 33.1645 44.9928 36 45C35.9124 43.0359 35.7789 41.769 35 40z"/>
<path style="fill:#c09ba0; stroke:none;" d="M46.3333 40.6667C46.2778 40.7222 46.2222 41.7778 46.6667 41.3333C46.7222 41.2778 46.7778 40.2222 46.3333 40.6667z"/>
<path style="fill:#855354; stroke:none;" d="M96 40L97 41L96 40z"/>
<path style="fill:#8b6763; stroke:none;" d="M187 40L188 41L187 40z"/>
<path style="fill:#430c12; stroke:none;" d="M14 41L13 45C14.303 43.3324 14.553 43.0078 14 41z"/>
<path style="fill:#896364; stroke:none;" d="M95 41L96 42L95 41z"/>
<path style="fill:#7f5658; stroke:none;" d="M125 41L125 49C126.161 46.2301 126.161 43.7699 125 41z"/>
<path style="fill:#916268; stroke:none;" d="M161 41L162 42L161 41z"/>
<path style="fill:#987575; stroke:none;" d="M47.3333 42.6667C47.2778 42.7222 47.2222 43.7778 47.6667 43.3333C47.7222 43.2778 47.7778 42.2222 47.3333 42.6667z"/>
<path style="fill:#815054; stroke:none;" d="M94 42L95 43L94 42z"/>
<path style="fill:#8c595c; stroke:none;" d="M188 42L189 43L188 42z"/>
<path style="fill:#a6868c; stroke:none;" d="M15 43L16 44L15 43z"/>
<path style="fill:#967677; stroke:none;" d="M27 43L28 44L27 43z"/>
<path style="fill:#ccc9c2; stroke:none;" d="M76 43C74.4144 47.5984 74.9968 52.1903 75 57C76.8567 52.5852 75.7723 47.9432 79 44C77.7517 43.3152 77.4516 43.2512 76 43z"/>
<path style="fill:#bcafa9; stroke:none;" d="M80 43C83.4324 44.4403 87.2998 44 91 44C87.5676 42.5597 83.7002 43 80 43z"/>
<path style="fill:#906264; stroke:none;" d="M91 43C92.2484 43.6848 92.5484 43.7488 94 44C92.7517 43.3152 92.4516 43.2512 91 43z"/>
<path style="fill:#85575c; stroke:none;" d="M160 43L161 44L160 43z"/>
<path style="fill:#846162; stroke:none;" d="M14 44L15 45L14 44z"/>
<path style="fill:#865555; stroke:none;" d="M77 44C81.2165 45.7693 86.4589 45 91 45C86.7835 43.2307 81.5411 44 77 44z"/>
<path style="fill:#b6999c; stroke:none;" d="M160 44L161 45L160 44z"/>
<path style="fill:#72494b; stroke:none;" d="M189 44L190 45L189 44z"/>
<path style="fill:#784f4a; stroke:none;" d="M159 45L160 46L159 45z"/>
<path style="fill:#d9d1d0; stroke:none;" d="M172 45L170 52C171.981 49.7232 172.866 47.9521 172 45z"/>
<path style="fill:#6f4850; stroke:none;" d="M174 45L175 46L174 45z"/>
<path style="fill:#a67e86; stroke:none;" d="M175 45L176 46L175 45z"/>
<path style="fill:#a68b8a; stroke:none;" d="M189 45L190 46L189 45z"/>
<path style="fill:#b08185; stroke:none;" d="M13 46L14 47L13 46z"/>
<path style="fill:#9e746f; stroke:none;" d="M48 46L48 49C48.6961 47.4463 48.6961 47.5537 48 46z"/>
<path style="fill:#906265; stroke:none;" d="M111 46C110.014 47.4785 110 47.2032 110 49C111.766 48.0214 111.955 47.7782 111 46z"/>
<path style="fill:#cda9b1; stroke:none;" d="M112 46L112 52C112.951 49.7147 112.951 48.2853 112 46z"/>
<path style="fill:#b5938e; stroke:none;" d="M159 46L160 47L159 46z"/>
<path style="fill:#a4868c; stroke:none;" d="M173 46L174 47L173 46z"/>
<path style="fill:#560d11; stroke:none;" d="M174 46C172.136 49.9392 170.446 53.6367 170 58C172.427 54.9925 173.43 51.8024 174 48C175.833 51.8687 178.04 55.6509 178 60L181 62C185.226 59.7449 189.294 60 194 60C190.538 58.5471 186.602 59.8488 183.188 58.3966C178.919 56.5804 177.161 50.0603 176 46L174 46z"/>
<path style="fill:#8d585a; stroke:none;" d="M12 47L13 48L12 47z"/>
<path style="fill:#732729; stroke:none;" d="M101 47L102 50C102.685 48.7517 102.749 48.4516 103 47L101 47z"/>
<path style="fill:#b08d8e; stroke:none;" d="M176 47L177 48L176 47z"/>
<path style="fill:#bbada5; stroke:none;" d="M12 48L12 52C12.7102 50.2405 12.7102 49.7595 12 48z"/>
<path style="fill:#b2878e; stroke:none;" d="M76 48L76 51C76.6961 49.4463 76.6961 49.5537 76 48z"/>
<path style="fill:#d89093; stroke:none;" d="M101 48L102 49L101 48z"/>
<path style="fill:#af9390; stroke:none;" d="M158 48L159 49L158 48z"/>
<path style="fill:#b78f95; stroke:none;" d="M172 48L173 49L172 48z"/>
<path style="fill:#7a484b; stroke:none;" d="M176 48L177 49L176 48z"/>
<path style="fill:#84625f; stroke:none;" d="M49 49L49 54C49.8299 51.9695 49.8299 51.0305 49 49z"/>
<path style="fill:#a55a5e; stroke:none;" d="M101 49L102 50L101 49z"/>
<path style="fill:#8a575e; stroke:none;" d="M172 49L173 50L172 49z"/>
<path style="fill:#957274; stroke:none;" d="M191 49L192 50L191 49z"/>
<path style="fill:#641518; stroke:none;" d="M50 50C50.6231 59.2782 46.14 59 38 59C36.8256 51.6932 32.4406 52.0007 26 52C25.0072 60.8088 15.5404 58.4288 10 64L12 67C9.62284 67.572 7.44203 67.8905 5 68L8 74L16 74L13 69L45 69L43 73C46.8699 73.8893 50.1031 73.4899 54 73C54.7505 69.0355 55.1729 65.9831 58 63L58 61C55.88 60.0146 54.2928 59.1738 52 59C51.9292 55.6613 51.7309 52.8886 50 50z"/>
<path style="fill:#4e1412; stroke:none;" d="M128 50C132.217 51.7693 137.459 51 142 51C137.783 49.2307 132.541 50 128 50z"/>
<path style="fill:#a88987; stroke:none;" d="M157 50L158 51L157 50z"/>
<path style="fill:#855657; stroke:none;" d="M177 50L178 51L177 50z"/>
<path style="fill:#a7878a; stroke:none;" d="M26.6667 51.3333C26.2222 51.7778 27.2778 51.7222 27.3333 51.6667C27.7778 51.2222 26.7222 51.2778 26.6667 51.3333z"/>
<path style="fill:#8f6d6b; stroke:none;" d="M28 51C30.6127 52.0977 33.1645 51.9928 36 52C33.3873 50.9023 30.8355 51.0072 28 51z"/>
<path style="fill:#e6d9d3; stroke:none;" d="M48 51L48 55C48.7102 53.2405 48.7102 52.7595 48 51z"/>
<path style="fill:#5e4847; stroke:none;" d="M69 51C69.5451 52.6352 69.3649 52.455 71 53L71 51L69 51z"/>
<path style="fill:#cea4a9; stroke:none;" d="M76 51L76 58C77.0595 55.4657 77.0595 53.5343 76 51z"/>
<path style="fill:#6a2c32; stroke:none;" d="M77 51L77 57C77.9511 54.7147 77.9511 53.2853 77 51z"/>
<path style="fill:#966b6c; stroke:none;" d="M126 51C130.974 53.0872 137.638 52 143 52C138.026 49.9128 131.362 51 126 51z"/>
<path style="fill:#724d49; stroke:none;" d="M156 51L157 52L156 51z"/>
<path style="fill:#8d676a; stroke:none;" d="M171 51L172 52L171 51z"/>
<path style="fill:#965b5e; stroke:none;" d="M192 51L193 52L192 51z"/>
<path style="fill:#6f3f46; stroke:none;" d="M12 52L13 53L12 52z"/>
<path style="fill:#82555d; stroke:none;" d="M36 52L37 53L36 52z"/>
<path style="fill:#652e2e; stroke:none;" d="M62 52L62 58C62.9511 55.7147 62.9511 54.2853 62 52z"/>
<path style="fill:#a89b9c; stroke:none;" d="M68.3333 52.6667C68.2778 52.7222 68.2222 53.7778 68.6667 53.3333C68.7222 53.2778 68.7778 52.2222 68.3333 52.6667z"/>
<path style="fill:#301e1b; stroke:none;" d="M69 52L70 53L69 52z"/>
<path style="fill:#a9807e; stroke:none;" d="M111 52L111 58C111.951 55.7147 111.951 54.2853 111 52z"/>
<path style="fill:#d4c6c5; stroke:none;" d="M127 52C131.511 54.0249 136.212 53.8757 141 53L141 57C141.779 55.231 141.912 53.9641 142 52L127 52z"/>
<path style="fill:#c398a2; stroke:none;" d="M142 52L142 56C142.71 54.2405 142.71 53.7595 142 52z"/>
<path style="fill:#9a7874; stroke:none;" d="M178 52L179 53L178 52z"/>
<path style="fill:#b29197; stroke:none;" d="M13.3333 53.6667C13.2778 53.7222 13.2222 54.7778 13.6667 54.3333C13.7222 54.2778 13.7778 53.2222 13.3333 53.6667z"/>
<path style="fill:#a2817e; stroke:none;" d="M37 53L37 56C37.6961 54.4463 37.6961 54.5537 37 53z"/>
<path style="fill:#e6ddd8; stroke:none;" d="M38.3333 53.6667C38.2778 53.7222 38.2222 54.7778 38.6667 54.3333C38.7222 54.2778 38.7778 53.2222 38.3333 53.6667z"/>
<path style="fill:#c6a9a7; stroke:none;" d="M63 53L63 58C63.8299 55.9695 63.8299 55.0305 63 53z"/>
<path style="fill:#695959; stroke:none;" d="M69 53L70 54L69 53z"/>
<path style="fill:#b29699; stroke:none;" d="M70 53L71 54L70 53z"/>
<path style="fill:#9f7375; stroke:none;" d="M170 53L171 54L170 53z"/>
<path style="fill:#7f4a4c; stroke:none;" d="M193 53L194 54L193 53z"/>
<path style="fill:#470a0c; stroke:none;" d="M194 53L195 58C195.651 55.7658 195.318 54.9262 194 53z"/>
<path style="fill:#d2bbb9; stroke:none;" d="M49 54C46.2623 58.2223 42.0629 56.7211 38 55C40.6146 59.0329 45.614 58 50 58C49.8259 56.3148 49.683 55.506 49 54z"/>
<path style="fill:#824749; stroke:none;" d="M50 54L50 58C50.7102 56.2405 50.7102 55.7595 50 54z"/>
<path style="fill:#bc9e9c; stroke:none;" d="M155.333 54.6667C155.278 54.7222 155.222 55.7778 155.667 55.3333C155.722 55.2778 155.778 54.2222 155.333 54.6667z"/>
<path style="fill:#b58a8c; stroke:none;" d="M179 54L180 55L179 54z"/>
<path style="fill:#b8a9a1; stroke:none;" d="M193.333 54.6667C193.278 54.7222 193.222 55.7778 193.667 55.3333C193.722 55.2778 193.778 54.2222 193.333 54.6667z"/>
<path style="fill:#615152; stroke:none;" d="M121.333 55.6667C121.278 55.7222 121.222 56.7778 121.667 56.3333C121.722 56.2778 121.778 55.2222 121.333 55.6667z"/>
<path style="fill:#9b8987; stroke:none;" d="M122.333 55.6667C122.278 55.7222 122.222 56.7778 122.667 56.3333C122.722 56.2778 122.778 55.2222 122.333 55.6667z"/>
<path style="fill:#a1918c; stroke:none;" d="M169 55L170 56L169 55z"/>
<path style="fill:#7c4649; stroke:none;" d="M179 55L180 56L179 55z"/>
<path style="fill:#a28984; stroke:none;" d="M12 56L13 57L12 56z"/>
<path style="fill:#af8a89; stroke:none;" d="M25 56L26 57L25 56z"/>
<path style="fill:#9a7370; stroke:none;" d="M142.333 56.6667C142.278 56.7222 142.222 57.7778 142.667 57.3333C142.722 57.2778 142.778 56.2222 142.333 56.6667z"/>
<path style="fill:#84605a; stroke:none;" d="M154.333 56.6667C154.278 56.7222 154.222 57.7778 154.667 57.3333C154.722 57.2778 154.778 56.2222 154.333 56.6667z"/>
<path style="fill:#612a2c; stroke:none;" d="M169.333 56.6667C169.278 56.7222 169.222 57.7778 169.667 57.3333C169.722 57.2778 169.778 56.2222 169.333 56.6667z"/>
<path style="fill:#b19792; stroke:none;" d="M180 56L181 57L180 56z"/>
<path style="fill:#8d605c; stroke:none;" d="M194 56C190.312 58.7943 185.481 58 181 58C183.571 59.2416 195.802 60.7802 194 56z"/>
<path style="fill:#915352; stroke:none;" d="M11.3333 57.6667C11.2778 57.7222 11.2222 58.7778 11.6667 58.3333C11.7222 58.2778 11.7778 57.2222 11.3333 57.6667z"/>
<path style="fill:#ac8783; stroke:none;" d="M38 57L39 58L38 57z"/>
<path style="fill:#aa8084; stroke:none;" d="M168 57L169 58L168 57z"/>
<path style="fill:#b58c8d; stroke:none;" d="M12 58C13.506 58.683 14.3148 58.8259 16 59C14.494 58.317 13.6852 58.1741 12 58z"/>
<path style="fill:#945f5c; stroke:none;" d="M16 58C18.8897 59.2129 21.8741 58.9983 25 59C22.1103 57.7871 19.1259 58.0017 16 58z"/>
<path style="fill:#915c62; stroke:none;" d="M38 58C41.6975 59.5515 46.0168 59 50 59C46.3025 57.4485 41.9832 58 38 58z"/>
<path style="fill:#965c60; stroke:none;" d="M63 58C66.9587 59.6611 71.7366 59 76 59C72.0413 57.3389 67.2634 58 63 58z"/>
<path style="fill:#925c5d; stroke:none;" d="M112 58C120.367 61.5108 133.924 59 143 59C134.633 55.4892 121.076 58 112 58z"/>
<path style="fill:#8a6263; stroke:none;" d="M155 58C159.217 59.7693 164.459 59 169 59C164.783 57.2307 159.541 58 155 58z"/>
<path style="fill:#6c2f31; stroke:none;" d="M12 59C13.506 59.683 14.3148 59.8259 16 60C14.494 59.317 13.6852 59.1741 12 59z"/>
<path style="fill:#793939; stroke:none;" d="M57.6667 63.3333C57.2222 63.7778 58.2778 63.7222 58.3333 63.6667C58.7778 63.2222 57.7222 63.2778 57.6667 63.3333z"/>
<path style="fill:#8a5457; stroke:none;" d="M70 63C72.0521 63.8742 73.7472 63.9528 76 64C73.9479 63.1258 72.2528 63.0472 70 63z"/>
<path style="fill:#8f5554; stroke:none;" d="M86 63C87.769 63.7789 89.0359 63.9124 91 64C89.2309 63.2211 87.9641 63.0876 86 63z"/>
<path style="fill:#8e595b; stroke:none;" d="M100 63C101.506 63.683 102.315 63.8259 104 64C102.494 63.317 101.685 63.1741 100 63z"/>
<path style="fill:#5b3539; stroke:none;" d="M112 63L112 76C113.591 72.2087 113.591 66.7913 112 63z"/>
<path style="fill:#8c4a4e; stroke:none;" d="M113.667 63.3333C113.222 63.7778 114.278 63.7222 114.333 63.6667C114.778 63.2222 113.722 63.2778 113.667 63.3333z"/>
<path style="fill:#8c5451; stroke:none;" d="M130 63C131.769 63.7789 133.036 63.9124 135 64C133.231 63.2211 131.964 63.0876 130 63z"/>
<path style="fill:#825354; stroke:none;" d="M145 63C147.052 63.8742 148.747 63.9528 151 64C148.948 63.1258 147.253 63.0472 145 63z"/>
<path style="fill:#360000; stroke:none;" d="M55 64L55 76C56.5124 72.3957 56.5124 67.6043 55 64z"/>
<path style="fill:#9d8385; stroke:none;" d="M56 64L56 76C57.5124 72.3957 57.5124 67.6043 56 64z"/>
<path style="fill:#c69da5; stroke:none;" d="M57.6667 64.3333C57.2222 64.7778 58.2778 64.7222 58.3333 64.6667C58.7778 64.2222 57.7222 64.2778 57.6667 64.3333z"/>
<path style="fill:#550e13; stroke:none;" d="M60 64L60 74L67 76C65.012 73.9389 63.8429 73.4213 61 73C60.9983 69.8741 61.2129 66.8897 60 64z"/>
<path style="fill:#966e6f; stroke:none;" d="M69 64L69 76C70.5124 72.3957 70.5124 67.6043 69 64z"/>
<path style="fill:#c3b1ab; stroke:none;" d="M70 64C71.9276 65.0909 72.7704 65.1654 75 65C73.2309 64.2211 71.9641 64.0876 70 64z"/>
<path style="fill:#bc9798; stroke:none;" d="M74 66C76.0924 65.5943 76.0198 65.7833 77 64C75.42 64.6836 75.2228 64.8048 74 66z"/>
<path style="fill:#6d2e2d; stroke:none;" d="M77.3333 64.6667C77.2778 64.7222 77.2222 65.7778 77.6667 65.3333C77.7222 65.2778 77.7778 64.2222 77.3333 64.6667z"/>
<path style="fill:#854f52; stroke:none;" d="M84 64L85 65L84 64z"/>
<path style="fill:#bcaeac; stroke:none;" d="M85 64L86 69C87.6025 67.3156 88.9747 66.1408 91 65C88.9479 64.1257 87.2528 64.0472 85 64z"/>
<path style="fill:#956b67; stroke:none;" d="M91 64L92 65L91 64z"/>
<path style="fill:#a27c7d; stroke:none;" d="M99 64L100 65L99 64z"/>
<path style="fill:#c1c1c1; stroke:none;" d="M100 66L104 65C101.954 64.2489 101.404 64.3444 100 66z"/>
<path style="fill:#b08781; stroke:none;" d="M103 66C105.092 65.5943 105.02 65.7833 106 64C104.42 64.6836 104.223 64.8048 103 66z"/>
<path style="fill:#4a0504; stroke:none;" d="M111 64L111 77C112.591 73.2087 112.591 67.7913 111 64z"/>
<path style="fill:#d6c6c6; stroke:none;" d="M113 64L113 76L115 76C115 72.8605 114.473 69.5449 116 67L117 68C115.846 65.7511 115.249 65.1535 113 64z"/>
<path style="fill:#9d797c; stroke:none;" d="M115 64L116 65L115 64z"/>
<path style="fill:#cda7ad; stroke:none;" d="M119.667 64.3333C119.222 64.7778 120.278 64.7222 120.333 64.6667C120.778 64.2222 119.722 64.2778 119.667 64.3333z"/>
<path style="fill:#a27b7f; stroke:none;" d="M121 64L122 65L121 64z"/>
<path style="fill:#ceb6b9; stroke:none;" d="M129 64C130.006 65.731 130.546 67.053 131 69C131.683 67.494 131.826 66.6852 132 65C133.734 65.83 134.154 66.0258 136 66L136 75C138.886 68.1213 136.068 64.0838 129 64z"/>
<path style="fill:#844d4a; stroke:none;" d="M136 64L137 65L136 64z"/>
<path style="fill:#410000; stroke:none;" d="M142 64L142 71C143.059 68.4657 143.059 66.5343 142 64z"/>
<path style="fill:#beb5ae; stroke:none;" d="M144 64C146.432 65.3171 148.248 65.2769 151 65C148.668 64.0155 146.543 64.0187 144 64z"/>
<path style="fill:#996867; stroke:none;" d="M151 64L152 65L151 64z"/>
<path style="fill:#dfcbcd; stroke:none;" d="M57 65L57 76L63 76C59.3705 72.6749 59.0169 69.7886 59 65L57 65z"/>
<path style="fill:#a68a87; stroke:none;" d="M59 65L59 71C59.9511 68.7147 59.9511 67.2853 59 65z"/>
<path style="fill:#eedfe8; stroke:none;" d="M70 65L70 76C71.4309 72.59 71.4309 68.41 70 65z"/>
<path style="fill:#c1c6cb; stroke:none;" d="M71 65L71 76L77 76C75.3518 75.0759 73.8251 74.5506 72 74L72 72L76 71C74.494 70.317 73.6852 70.1741 72 70L73 65L71 65z"/>
<path style="fill:#c3b8b2; stroke:none;" d="M84 65L84 76C85.4309 72.59 85.4309 68.41 84 65z"/>
<path style="fill:#d6d4d6; stroke:none;" d="M85 65C85 68.7059 84.0486 73.421 87 76C86.1344 72.3643 86.4287 68.4035 85 65z"/>
<path style="fill:#d8c9c4; stroke:none;" d="M89 65C90.2228 66.1952 90.42 66.3164 92 67C91.0198 65.2167 91.0924 65.4057 89 65z"/>
<path style="fill:#a8868d; stroke:none;" d="M98 65L98 76C99.4309 72.59 99.4309 68.41 98 65z"/>
<path style="fill:#c6c9ce; stroke:none;" d="M99 65L99 76L106 76C104.623 75.0886 103.56 74.5962 102 74L104 70L99 65z"/>
<path style="fill:#8a6360; stroke:none;" d="M116 65L117 66L116 65z"/>
<path style="fill:#ddd1cf; stroke:none;" d="M119 65L119 69C119.685 67.7516 119.749 67.4516 120 66C120.9 69.0408 120.992 71.8309 121 75C122.327 71.8367 122 68.4144 122 65L119 65z"/>
<path style="fill:#825451; stroke:none;" d="M122 65L122 69C122.71 67.2405 122.71 66.7595 122 65z"/>
<path style="fill:#410605; stroke:none;" d="M123 65L123 69C123.71 67.2405 123.71 66.7595 123 65z"/>
<path style="fill:#754f53; stroke:none;" d="M128 65L128 76C129.431 72.59 129.431 68.41 128 65z"/>
<path style="fill:#d7cdd0; stroke:none;" d="M129 65C129.003 69.1369 128.346 73.418 132 76C131.313 72.2995 131.01 68.7626 131 65L129 65z"/>
<path style="fill:#ac8f94; stroke:none;" d="M132.667 65.3333C132.222 65.7778 133.278 65.7222 133.333 65.6667C133.778 65.2222 132.722 65.2778 132.667 65.3333z"/>
<path style="fill:#480300; stroke:none;" d="M138 65L138 74C139.256 71.0059 139.256 67.9941 138 65z"/>
<path style="fill:#b98c86; stroke:none;" d="M143 65L143 70C143.83 67.9695 143.83 67.0305 143 65z"/>
<path style="fill:#d1cac2; stroke:none;" d="M144 65L144 71L148 71L147 65L144 65z"/>
<path style="fill:#e2bbbb; stroke:none;" d="M148 65C149.543 66.2667 150.048 66.4893 152 67C150.686 65.3821 150.123 65.3067 148 65z"/>
<path style="fill:#4d0804; stroke:none;" d="M68 66L68 76C69.3457 72.793 69.3457 69.207 68 66z"/>
<path style="fill:#6d2f32; stroke:none;" d="M73 66C74.5061 66.683 75.3148 66.8259 77 67C75.494 66.317 74.6852 66.1741 73 66z"/>
<path style="fill:#6a4c4c; stroke:none;" d="M87 66L87 68C88.6352 67.4549 88.4549 67.6352 89 66L87 66z"/>
<path style="fill:#af9191; stroke:none;" d="M89 66L90 67L89 66z"/>
<path style="fill:#b89a9f; stroke:none;" d="M101 66L101 69C101.696 67.4463 101.696 67.5537 101 66z"/>
<path style="fill:#6b292f; stroke:none;" d="M102 69L106 67C103.588 65.6452 102.568 66.3511 102 69z"/>
<path style="fill:#76575d; stroke:none;" d="M118 66C118.031 67.8318 117.921 67.5587 119 69C118.749 67.5484 118.685 67.2483 118 66z"/>
<path style="fill:#bfc1bc; stroke:none;" d="M120 66C118.364 67.9691 117.519 67.6018 115 67L115 76C115.779 74.2309 115.912 72.9641 116 71C117.845 73.5139 119.035 75.0345 122 76C121.209 72.6794 121.309 69.1118 120 66z"/>
<path style="fill:#551314; stroke:none;" d="M132 66L132 74L134 74L134 66L132 66z"/>
<path style="fill:#ded1d1; stroke:none;" d="M135 66C134.99 69.4552 134.802 72.6321 134 76C136.789 73.5629 136.361 69.2443 135 66z"/>
<path style="fill:#8b5a5e; stroke:none;" d="M147 66L147 70L152 70C150.494 69.317 149.685 69.1741 148 69L149 66L147 66z"/>
<path style="fill:#a07f85; stroke:none;" d="M72 67L72 70C72.6961 68.4463 72.6961 68.5537 72 67z"/>
<path style="fill:#6c3934; stroke:none;" d="M83 67L83 73C83.9511 70.7147 83.9511 69.2853 83 67z"/>
<path style="fill:#855558; stroke:none;" d="M89 67C90.2484 67.6848 90.5484 67.7488 92 68C90.7517 67.3152 90.4516 67.2512 89 67z"/>
<path style="fill:#9f8486; stroke:none;" d="M134 67L134 72C134.83 69.9695 134.83 69.0305 134 67z"/>
<path style="fill:#532e2d; stroke:none;" d="M137 67L137 75C138.161 72.2301 138.161 69.7699 137 67z"/>
<path style="fill:#8e5e60; stroke:none;" d="M149 67C150.248 67.6848 150.548 67.7488 152 68C150.752 67.3152 150.452 67.2512 149 67z"/>
<path style="fill:#895753; stroke:none;" d="M13 71C22.4101 68.7597 35.5899 68.7597 45 71C43.0845 68.8079 40.8781 69.0192 37.9992 69.0008C32.3336 68.9645 26.6658 68.989 21 69C17.8945 69.006 15.1029 68.5934 13 71z"/>
<path style="fill:#855252; stroke:none;" d="M73 69C74.2484 69.6848 74.5484 69.7488 76 70C74.7516 69.3152 74.4516 69.2512 73 69z"/>
<path style="fill:#b59897; stroke:none;" d="M86.3333 69.6667C86.2778 69.7222 86.2222 70.7778 86.6667 70.3333C86.7222 70.2778 86.7778 69.2222 86.3333 69.6667z"/>
<path style="fill:#975158; stroke:none;" d="M88 69C89.5061 69.683 90.3148 69.8259 92 70C90.494 69.317 89.6852 69.1741 88 69z"/>
<path style="fill:#915f57; stroke:none;" d="M102.667 69.3333C102.222 69.7778 103.278 69.7222 103.333 69.6667C103.778 69.2222 102.722 69.2778 102.667 69.3333z"/>
<path style="fill:#a98081; stroke:none;" d="M122 69L122 72C122.696 70.4463 122.696 70.5537 122 69z"/>
<path style="fill:#9a807b; stroke:none;" d="M131 69L131 74C131.83 71.9695 131.83 71.0305 131 69z"/>
<path style="fill:#a2736c; stroke:none;" d="M164 69C165.769 69.7789 167.036 69.9124 169 70C167.231 69.2211 165.964 69.0876 164 69z"/>
<path style="fill:#8a5454; stroke:none;" d="M169 69C176.169 72.0081 187.239 70 195 70C187.831 66.9919 176.761 69 169 69z"/>
<path style="fill:#d7b2b3; stroke:none;" d="M14 70C22.1277 73.4105 35.1864 71 44 71C35.8723 67.5895 22.8136 70 14 70z"/>
<path style="fill:#897974; stroke:none;" d="M88.3333 70.6667C88.2778 70.7222 88.2222 71.7778 88.6667 71.3333C88.7222 71.2778 88.7778 70.2222 88.3333 70.6667z"/>
<path style="fill:#c0c4be; stroke:none;" d="M89 70L89 75L92 70L89 70z"/>
<path style="fill:#b2897b; stroke:none;" d="M104 70L105 71L104 70z"/>
<path style="fill:#8d595b; stroke:none;" d="M143 70L144 71L143 70z"/>
<path style="fill:#cbb0ac; stroke:none;" d="M148 70C149.506 70.683 150.315 70.8259 152 71C150.494 70.317 149.685 70.1741 148 70z"/>
<path style="fill:#703339; stroke:none;" d="M163.333 70.6667C163.278 70.7223 163.222 71.7777 163.667 71.3333C163.722 71.2778 163.778 70.2222 163.333 70.6667z"/>
<path style="fill:#e1c8c5; stroke:none;" d="M164 70C165.769 70.7789 167.036 70.9124 169 71C167.231 70.2211 165.964 70.0876 164 70z"/>
<path style="fill:#d5b3b5; stroke:none;" d="M169 70C175.928 72.9071 186.503 71 194 71C187.072 68.0929 176.497 70 169 70z"/>
<path style="fill:#b4817c; stroke:none;" d="M194 70L195 71L194 70z"/>
<path style="fill:#8d6668; stroke:none;" d="M14 71C20.9279 73.9071 31.503 72 39 72C32.0721 69.0929 21.497 71 14 71z"/>
<path style="fill:#ae9391; stroke:none;" d="M39 71C40.506 71.683 41.3148 71.8259 43 72C41.494 71.317 40.6852 71.1741 39 71z"/>
<path style="fill:#895f5a; stroke:none;" d="M43 71L44 72L43 71z"/>
<path style="fill:#7d4e54; stroke:none;" d="M59 71L59 74C59.6961 72.4463 59.6961 72.5537 59 71z"/>
<path style="fill:#9d7777; stroke:none;" d="M73 71C74.2484 71.6848 74.5484 71.7488 76 72C74.7516 71.3152 74.4516 71.2512 73 71z"/>
<path style="fill:#cfafb8; stroke:none;" d="M86 71L86 75C86.7102 73.2405 86.7102 72.7595 86 71z"/>
<path style="fill:#231a1b; stroke:none;" d="M87 71C87.4057 73.0924 87.2167 73.0198 89 74C88.3164 72.42 88.1952 72.2228 87 71z"/>
<path style="fill:#dac3c7; stroke:none;" d="M91 71C89.7234 72.9852 89.0191 73.8495 87 75C90.2421 76.0631 92.0631 74.2421 91 71z"/>
<path style="fill:#86584c; stroke:none;" d="M103.667 71.3333C103.222 71.7778 104.278 71.7222 104.333 71.6667C104.778 71.2222 103.722 71.2778 103.667 71.3333z"/>
<path style="fill:#958383; stroke:none;" d="M116 71L117 72L116 71z"/>
<path style="fill:#712f3f; stroke:none;" d="M144.333 71.6667C144.278 71.7223 144.222 72.7777 144.667 72.3333C144.722 72.2778 144.778 71.2222 144.333 71.6667z"/>
<path style="fill:#816566; stroke:none;" d="M145 71C146.248 71.6848 146.548 71.7488 148 72C146.752 71.3152 146.452 71.2512 145 71z"/>
<path style="fill:#cdc9c2; stroke:none;" d="M148 71L149 75L144 74C147.278 77.7467 151.281 75.3064 152 71L148 71z"/>
<path style="fill:#82555a; stroke:none;" d="M152 71L152 75C152.71 73.2405 152.71 72.7595 152 71z"/>
<path style="fill:#8a6666; stroke:none;" d="M164 71C172.367 74.5108 185.924 72 195 72C186.633 68.4892 173.076 71 164 71z"/>
<path style="fill:#783233; stroke:none;" d="M39 72C40.2484 72.6848 40.5484 72.7488 42 73C40.7517 72.3152 40.4516 72.2512 39 72z"/>
<path style="fill:#b09598; stroke:none;" d="M72.3333 72.6667C72.2778 72.7222 72.2222 73.7778 72.6667 73.3333C72.7222 73.2778 72.7778 72.2222 72.3333 72.6667z"/>
<path style="fill:#865667; stroke:none;" d="M102.333 72.6667C102.278 72.7222 102.222 73.7778 102.667 73.3333C102.722 73.2778 102.778 72.2222 102.333 72.6667z"/>
<path style="fill:#855150; stroke:none;" d="M122 72L122 76C122.71 74.2405 122.71 73.7595 122 72z"/>
<path style="fill:#4c0402; stroke:none;" d="M123 72L123 76C123.71 74.2405 123.71 73.7595 123 72z"/>
<path style="fill:#c4a8ab; stroke:none;" d="M134 72L134 75C134.696 73.4463 134.696 73.5537 134 72z"/>
<path style="fill:#490617; stroke:none;" d="M145 72C146.458 73.0811 147.248 73.4361 149 74C147.457 72.7333 146.952 72.5108 145 72z"/>
<path style="fill:#875b62; stroke:none;" d="M148 72L149 73L148 72z"/>
<path style="fill:#531111; stroke:none;" d="M176 72C181.469 74.295 189.099 73 195 73C189.531 70.705 181.901 72 176 72z"/>
<path style="fill:#b88c8b; stroke:none;" d="M143 75L146 74C144.222 73.0445 143.979 73.2338 143 75z"/>
<path style="fill:#773446; stroke:none;" d="M146 73L147 74L146 73z"/>
<path style="fill:#805a55; stroke:none;" d="M60 74L63 77C63.951 74.4934 62.348 74.2942 60 74z"/>
<path style="fill:#7e6260; stroke:none;" d="M73 74C74.5061 74.683 75.3148 74.8259 77 75C75.494 74.317 74.6852 74.1741 73 74z"/>
<path style="fill:#706f6d; stroke:none;" d="M87.6667 74.3333C87.2222 74.7778 88.2778 74.7222 88.3333 74.6667C88.7778 74.2222 87.7222 74.2778 87.6667 74.3333z"/>
<path style="fill:#86615e; stroke:none;" d="M103 74C104.248 74.6848 104.548 74.7488 106 75C104.752 74.3152 104.452 74.2512 103 74z"/>
<path style="fill:#a78e89; stroke:none;" d="M118 74L119 75L118 74z"/>
<path style="fill:#d5b4af; stroke:none;" d="M129.333 74.6667C129.278 74.7223 129.222 75.7778 129.667 75.3333C129.722 75.2778 129.778 74.2222 129.333 74.6667z"/>
<path style="fill:#634636; stroke:none;" d="M132.667 74.3333C132.222 74.7778 133.278 74.7222 133.333 74.6667C133.778 74.2222 132.722 74.2778 132.667 74.3333z"/>
<path style="fill:#998d87; stroke:none;" d="M146 74C147.248 74.6848 147.548 74.7488 149 75C147.752 74.3152 147.452 74.2512 146 74z"/>
<path style="fill:#a37e7f; stroke:none;" d="M91 75L92 76L91 75z"/>
<path style="fill:#b39288; stroke:none;" d="M132 75C132.98 76.7833 132.908 76.5943 135 77C133.777 75.8048 133.58 75.6836 132 75z"/>
<path style="fill:#9e7374; stroke:none;" d="M136 75L137 76L136 75z"/>
<path style="fill:#885c5c; stroke:none;" d="M143 75L144 76L143 75z"/>
<path style="fill:#b69594; stroke:none;" d="M151 75L152 76L151 75z"/>
<path style="fill:#935e60; stroke:none;" d="M57.6667 76.3333C57.2222 76.7778 58.2778 76.7222 58.3333 76.6667C58.7778 76.2222 57.7222 76.2778 57.6667 76.3333z"/>
<path style="fill:#b68686; stroke:none;" d="M59.6667 76.3333C59.2222 76.7778 60.2778 76.7222 60.3333 76.6667C60.7778 76.2222 59.7222 76.2778 59.6667 76.3333z"/>
<path style="fill:#a46166; stroke:none;" d="M61.6667 76.3333C61.2222 76.7778 62.2778 76.7222 62.3333 76.6667C62.7778 76.2222 61.7222 76.2778 61.6667 76.3333z"/>
<path style="fill:#8a615f; stroke:none;" d="M70.6667 76.3333C70.2222 76.7778 71.2778 76.7222 71.3333 76.6667C71.7778 76.2222 70.7222 76.2778 70.6667 76.3333z"/>
<path style="fill:#b1857f; stroke:none;" d="M72 76C73.2483 76.6848 73.5484 76.7488 75 77C73.7516 76.3152 73.4516 76.2512 72 76z"/>
<path style="fill:#884b51; stroke:none;" d="M75.6667 76.3333C75.2222 76.7778 76.2778 76.7222 76.3333 76.6667C76.7778 76.2222 75.7222 76.2778 75.6667 76.3333z"/>
<path style="fill:#af888c; stroke:none;" d="M85 76C87.0521 76.8743 88.7472 76.9528 91 77C88.9479 76.1258 87.2528 76.0472 85 76z"/>
<path style="fill:#986161; stroke:none;" d="M98 76C99.2483 76.6848 99.5484 76.7488 101 77C99.7516 76.3152 99.4516 76.2512 98 76z"/>
<path style="fill:#ad8586; stroke:none;" d="M101 76C102.506 76.683 103.315 76.8259 105 77C103.494 76.317 102.685 76.1741 101 76z"/>
<path style="fill:#834c4a; stroke:none;" d="M105 76L106 77L105 76z"/>
<path style="fill:#b37d85; stroke:none;" d="M113.667 76.3333C113.222 76.7778 114.278 76.7222 114.333 76.6667C114.778 76.2222 113.722 76.2778 113.667 76.3333z"/>
<path style="fill:#7c434a; stroke:none;" d="M115 76L116 77L115 76z"/>
<path style="fill:#a16771; stroke:none;" d="M119 76C120.248 76.6848 120.548 76.7488 122 77C120.752 76.3152 120.452 76.2512 119 76z"/>
<path style="fill:#936266; stroke:none;" d="M129 76C130.248 76.6848 130.548 76.7488 132 77C130.752 76.3152 130.452 76.2512 129 76z"/>
<path style="fill:#8c5c5f; stroke:none;" d="M144.667 76.3333C144.222 76.7778 145.278 76.7222 145.333 76.6667C145.778 76.2222 144.722 76.2778 144.667 76.3333z"/>
<path style="fill:#a79487; stroke:none;" d="M146 76C147.769 76.7789 149.036 76.9124 151 77C149.231 76.2211 147.964 76.0876 146 76z"/>
<path style="fill:#73353b; stroke:none;" d="M59.6667 77.3333C59.2222 77.7778 60.2778 77.7222 60.3333 77.6667C60.7778 77.2222 59.7222 77.2778 59.6667 77.3333z"/>
<path style="fill:#713436; stroke:none;" d="M87 77C88.2483 77.6848 88.5484 77.7488 90 78C88.7516 77.3152 88.4516 77.2512 87 77z"/>
<path style="fill:#75393b; stroke:none;" d="M101 77C102.248 77.6848 102.548 77.7488 104 78C102.752 77.3152 102.452 77.2512 101 77z"/>
<path style="fill:#683333; stroke:none;" d="M131 77C132.248 77.6848 132.548 77.7488 134 78C132.752 77.3152 132.452 77.2512 131 77z"/>
<path style="fill:#6b302b; stroke:none;" d="M146 77C147.506 77.683 148.315 77.8259 150 78C148.494 77.317 147.685 77.1741 146 77z"/>
<path style="fill:#651518; stroke:none;" d="M324 80L324 84L503 84L503 80L324 80z"/>
</svg>
